<svg version="1.0" xmlns="http://www.w3.org/2000/svg"
 width="512.000000pt" height="512.000000pt" style="fill: green" viewBox="0 0 512.000000 512.000000"
 preserveAspectRatio="xMidYMid meet">
<g transform="translate(0.000000,512.000000) scale(0.100000,-0.100000)"
fill="green" stroke="none">
<path d="M2047 5097 c-34 -34 -47 -85 -47 -193 l0 -91 -52 -16 c-29 -9 -73
-21 -98 -26 -127 -28 -394 -137 -544 -222 -546 -312 -934 -788 -1129 -1384
-37 -111 -87 -326 -94 -401 -12 -132 33 -235 121 -275 107 -48 273 4 336 105
12 21 31 86 45 163 46 236 127 456 237 643 238 404 624 716 1063 859 l120 39
5 -187 c5 -205 13 -231 68 -252 64 -25 91 -12 541 257 463 276 481 290 481
364 0 47 -29 92 -82 127 -24 16 -221 137 -438 268 -374 227 -397 239 -452 243
-50 4 -59 1 -81 -21z"/>
<path d="M3772 4342 c-60 -22 -118 -71 -138 -119 -8 -18 -14 -59 -14 -91 0
-92 40 -163 145 -253 309 -265 538 -658 620 -1065 57 -278 53 -553 -11 -826
-9 -38 -18 -68 -20 -68 -2 0 -54 30 -115 66 -131 78 -159 87 -211 73 -42 -11
-66 -40 -78 -93 -4 -19 -4 -255 1 -526 7 -424 11 -496 25 -526 23 -48 50 -64
110 -64 48 0 73 13 465 236 228 130 429 250 446 267 34 32 50 80 38 116 -12
40 -55 79 -145 132 -49 29 -90 57 -90 62 0 5 11 46 25 91 102 336 123 766 54
1124 -74 390 -240 750 -489 1067 -35 44 -122 139 -195 211 -102 102 -146 138
-196 162 -84 41 -156 49 -227 24z"/>
<path d="M2724 3688 c-37 -32 -66 -87 -164 -308 -39 -89 -150 -335 -193 -430
-69 -154 -199 -442 -460 -1027 -159 -355 -167 -375 -167 -435 0 -77 23 -131
74 -176 32 -28 44 -32 91 -32 81 0 118 37 183 183 220 490 295 658 349 777 27
60 92 203 256 570 58 129 140 312 182 405 101 223 104 231 104 295 1 70 -34
147 -81 184 -27 20 -46 26 -86 26 -44 0 -57 -5 -88 -32z"/>
<path d="M1260 3283 c-45 -23 -531 -656 -554 -722 -21 -60 -20 -146 3 -197 10
-22 63 -99 118 -170 54 -71 161 -211 236 -310 159 -211 174 -227 222 -241 102
-32 205 69 208 203 3 99 -6 114 -185 352 -94 125 -179 236 -189 247 -18 21
-16 24 157 250 97 127 186 250 197 275 32 69 28 162 -9 230 -16 29 -41 62 -55
73 -38 28 -106 32 -149 10z"/>
<path d="M3430 3289 c-97 -40 -145 -206 -93 -319 11 -25 100 -148 197 -275
173 -226 175 -229 157 -250 -10 -11 -95 -122 -189 -247 -179 -238 -188 -253
-185 -352 3 -134 106 -235 208 -203 48 14 63 30 222 241 75 99 182 239 236
310 55 71 108 148 118 170 23 52 24 146 1 203 -20 50 -502 686 -537 709 -31
20 -102 27 -135 13z"/>
<path d="M373 1796 c-24 -20 -34 -40 -42 -79 -14 -68 -33 -971 -21 -1021 14
-61 50 -91 109 -90 43 0 66 11 177 77 l128 76 100 -97 c339 -327 782 -549
1261 -633 154 -27 494 -37 657 -19 209 22 492 91 597 144 52 27 115 87 138
131 25 47 29 147 8 201 -35 92 -115 154 -199 154 -26 0 -93 -16 -158 -39 -221
-75 -397 -105 -628 -105 -194 0 -299 12 -470 55 -221 55 -414 140 -601 265
-97 64 -250 186 -256 203 -2 3 36 28 83 56 112 65 144 101 144 162 0 41 -5 50
-39 82 -21 20 -222 139 -446 265 -357 201 -414 230 -459 234 -45 4 -56 1 -83
-22z"/>
</g>
</svg>
