<?xml version="1.0" encoding="UTF-8" standalone="no"?>
<svg
   xmlns:dc="http://purl.org/dc/elements/1.1/"
   xmlns:cc="http://creativecommons.org/ns#"
   xmlns:rdf="http://www.w3.org/1999/02/22-rdf-syntax-ns#"
   xmlns:svg="http://www.w3.org/2000/svg"
   xmlns="http://www.w3.org/2000/svg"
   xmlns:sodipodi="http://sodipodi.sourceforge.net/DTD/sodipodi-0.dtd"
   xmlns:inkscape="http://www.inkscape.org/namespaces/inkscape"
   viewBox="0 0 774 774.99999"
   version="1.1"
   id="svg4599"
   sodipodi:docname="webpack.svg"
   width="774"
   height="775"
   inkscape:version="0.92.4 (33fec40, 2019-01-16)">
  <metadata
     id="metadata4605">
    <rdf:RDF>
      <cc:Work
         rdf:about="">
        <dc:format>image/svg+xml</dc:format>
        <dc:type
           rdf:resource="http://purl.org/dc/dcmitype/StillImage" />
        <dc:title>icon</dc:title>
      </cc:Work>
    </rdf:RDF>
  </metadata>
  <defs
     id="defs4603" />
  <sodipodi:namedview
     pagecolor="#ffffff"
     bordercolor="#666666"
     borderopacity="1"
     objecttolerance="10"
     gridtolerance="10"
     guidetolerance="10"
     inkscape:pageopacity="0"
     inkscape:pageshadow="2"
     inkscape:window-width="1920"
     inkscape:window-height="1052"
     id="namedview4601"
     showgrid="false"
     inkscape:zoom="0.98892313"
     inkscape:cx="387"
     inkscape:cy="437.85001"
     inkscape:window-x="0"
     inkscape:window-y="0"
     inkscape:window-maximized="1"
     inkscape:current-layer="svg4599" />
  <title
     id="title4591">icon</title>
  <path
     d="m 387,-100.70001 387,218.9 v 437.9 l -387,218.9 -387,-218.9 v -437.9 z"
     id="path4593"
     inkscape:connector-curvature="0"
     style="fill:#ffffff" />
  <path
     d="m 703.8888,588.52644 -305.1,172.6 v -134.4 l 190.1,-104.6 z m 20.9,-18.9 v -360.9 l -111.6,64.5 v 232 z m -657.900001,18.9 305.100001,172.6 v -134.4 l -190.2,-104.6 z m -20.9,-18.9 v -360.9 l 111.600001,64.5 v 232 z m 13.1,-384.3 L 371.9888,8.3264315 V 138.22644 l -200.5,110.3 -1.6,0.9 z m 652.600001,0 -312.9,-177.0000085 V 138.22644 l 200.5,110.2 1.6,0.9 z"
     id="path4595"
     inkscape:connector-curvature="0"
     style="fill:#8ed6fb" />
  <path
     d="m 371.9888,596.12644 -187.6,-103.2 v -204.3 l 187.6,108.3 z m 26.8,0 187.6,-103.1 v -204.4 l -187.6,108.3 z m -13.4,-207 z m -188.3,-124.1 188.3,-103.5 188.3,103.5 -188.3,108.7 z"
     id="path4597"
     inkscape:connector-curvature="0"
     style="fill:#1c78c0" />
</svg>
